<svg xmlns="http://www.w3.org/2000/svg" width="49.684" height="40" viewBox="0 0 49.684 40">
  <g id="ic_signal_wifi_2_bar_lock_24px" transform="translate(-0.4 -3)">
    <path id="Pfad_207" data-name="Pfad 207" d="M29.632,20.421V17.263a5.263,5.263,0,1,0-10.526,0v3.158A2.264,2.264,0,0,0,17,22.526v8.421a2.264,2.264,0,0,0,2.105,2.105H29.632a2.264,2.264,0,0,0,2.105-2.105V22.526A2.264,2.264,0,0,0,29.632,20.421Zm-2.105,0H21.211V17.263a3.158,3.158,0,1,1,6.316,0Z" transform="translate(18.347 9.947)" fill="#545454"/>
    <path id="Pfad_208" data-name="Pfad 208" d="M32.189,27.211A10.424,10.424,0,0,1,42.716,16.684a6.49,6.49,0,0,1,2.105.211l4.421-5.474A40.6,40.6,0,0,0,24.821,3,40.6,40.6,0,0,0,.4,11.421L24.821,41.947l7.368-9.053V27.211Z" transform="translate(0 0)" fill="#545454" opacity="0.3"/>
    <path id="Pfad_209" data-name="Pfad 209" d="M4.8,15.35,20.208,34.611l7.49-9.416V19.63a10.191,10.191,0,0,1,3-7.276A24.488,24.488,0,0,0,20.208,10,25.335,25.335,0,0,0,4.8,15.35Z" transform="translate(4.653 7.337)" fill="#545454"/>
  </g>
</svg>
